<svg width="106" height="88" viewBox="0 0 106 88" fill="none" xmlns="http://www.w3.org/2000/svg">
<path d="M38.4377 27.3893H46.9333V44.7811C42.1675 50.127 35.3295 52.8 26.4194 52.8C18.8907 52.8 12.6053 50.3006 7.5632 45.3018C2.52107 40.3029 0 34.0544 0 26.5562C0 19.058 2.5556 12.7747 7.66681 7.70651C12.8471 2.56884 19.098 0 26.4194 0C33.7409 0 39.8191 2.11755 44.654 6.35266L40.0953 12.9136C36.5728 9.9282 32.2559 8.4355 27.1447 8.4355C21.9644 8.4355 17.6129 10.1365 14.0904 13.5385C10.6368 16.871 8.91008 21.2103 8.91008 26.5562C8.91008 31.9022 10.5678 36.2414 13.8831 39.574C17.2676 42.8371 21.4463 44.4686 26.4194 44.4686C31.2543 44.4686 35.2604 43.4272 38.4377 41.3444V27.3893Z" fill="white"/>
<line x1="56.2324" y1="2.18558e-08" x2="56.2324" y2="35.2" stroke="white"/>
<line x1="56.2324" y1="35.2002" x2="56.2324" y2="70.4002" stroke="#4295E4"/>
<path d="M86.7834 88.0002C78.5426 88.0002 71.1258 85.4335 64.5332 80.3002L69.7524 71.9127C75.6125 76.4044 81.3811 78.6502 87.0581 78.6502C89.4387 78.6502 91.3158 78.1002 92.6893 77.0002C94.1543 75.8085 94.8868 74.3419 94.8868 72.6002C94.8868 70.0335 91.4989 67.7419 84.7232 65.7252C84.54 65.6335 84.3111 65.5419 84.0364 65.4502C83.8533 65.3585 83.716 65.3127 83.6244 65.3127C73.0029 62.471 67.6922 57.6585 67.6922 50.8752C67.6922 46.1085 69.4777 42.3044 73.0487 39.4627C76.7113 36.621 81.5184 35.2002 87.4701 35.2002C93.3302 35.2002 98.9157 36.9419 104.226 40.4252L100.243 48.4002C96.1229 45.6502 91.5905 44.2752 86.646 44.2752C80.8775 44.2752 77.9932 46.1085 77.9932 49.7752C77.9932 51.3335 78.5426 52.4794 79.6413 53.2127C80.8317 53.8544 82.7545 54.496 85.4099 55.1377C89.4387 56.2377 92.8266 57.3377 95.5736 58.4377C97.4048 59.2627 99.0072 60.1335 100.381 61.0502C103.86 63.4335 105.6 67.0544 105.6 71.9127C105.6 76.6794 103.814 80.5752 100.243 83.6002C96.7639 86.5335 92.2772 88.0002 86.7834 88.0002Z" fill="#4295E4"/>
</svg>
