<svg width="82" height="82" viewBox="0 0 82 82" fill="none" xmlns="http://www.w3.org/2000/svg">
<g clip-path="url(#clip0_15_1852)">
<mask id="path-1-inside-1_15_1852" fill="white">
<path d="M66.5618 46.0606L65.6146 45.1134C65.5214 45.0202 65.4995 44.8681 65.554 44.7374L65.5784 44.6773C65.6309 44.5503 65.7773 44.5234 65.8905 44.5234H67.23C71.9302 44.5234 75.7539 40.6659 75.7539 35.9238V33.2637C75.7539 30.979 74.858 28.8444 73.2321 27.2541C71.6305 25.6869 69.4991 24.8242 67.23 24.8242H65.8899C65.8374 24.8242 65.6628 24.7141 65.5727 24.4964L65.5577 24.4607C65.4989 24.3194 65.5214 24.1673 65.6146 24.0741L66.5618 23.1269C68.1715 21.5172 69.0586 19.3764 69.0586 17.0998C69.0586 14.8232 68.1715 12.6824 66.5618 11.0727L64.6806 9.19209C63.0709 7.58177 60.9307 6.69528 58.6535 6.69528C56.3769 6.69528 54.2367 7.58177 52.627 9.19209L51.6792 10.1393C51.586 10.2325 51.4346 10.255 51.2975 10.1981L51.2431 10.1756C51.1161 10.123 51.0892 9.97661 51.0892 9.86337V8.52332C51.0898 3.82373 47.2323 0 42.4902 0H39.8301C35.088 0 31.2305 3.82373 31.2305 8.52332V9.86337C31.2305 9.97661 31.2036 10.123 31.0797 10.1737L31.0271 10.1956C30.8858 10.2544 30.7337 10.2325 30.6405 10.1393L29.6933 9.19147C28.0836 7.58177 25.9428 6.69528 23.6662 6.69528C21.3896 6.69528 19.2488 7.58177 17.6391 9.19147L15.7585 11.0727C14.1482 12.6824 13.2617 14.8232 13.2617 17.0998C13.2617 19.3764 14.1482 21.5172 15.7579 23.1269L16.7057 24.0741C16.7989 24.1673 16.8208 24.3194 16.7645 24.4557L16.7413 24.5102C16.6888 24.6372 16.543 24.6641 16.4298 24.6641H15.0897C10.3901 24.6641 6.56641 28.5216 6.56641 33.2637V35.9238C6.56641 38.2085 7.46228 40.3431 9.08824 41.9334C10.6898 43.5006 12.8213 44.3633 15.0897 44.3633H16.4298C16.4823 44.3633 16.6575 44.4734 16.747 44.6898L16.762 44.7268C16.8208 44.8681 16.7989 45.0202 16.7057 45.1134L15.7579 46.0606C12.4346 49.3838 12.4346 54.7916 15.7579 58.1148L17.6391 59.996C20.9623 63.3193 26.3701 63.3193 29.6933 59.996L30.6405 59.0482C30.7337 58.955 30.8858 58.9331 31.0221 58.9894L31.0766 59.0126C31.2036 59.0645 31.2305 59.2109 31.2305 59.3241V60.6636C31.2305 65.3638 35.088 69.1875 39.8301 69.1875H42.4902C47.2323 69.1875 51.0898 65.3638 51.0898 60.6636V59.3241C51.0898 59.2109 51.1167 59.0645 51.2437 59.0126L51.2932 58.9919C51.4346 58.9331 51.5866 58.955 51.6798 59.0482L52.627 59.996C55.9502 63.3193 61.358 63.3193 64.6812 59.996L66.5624 58.1148C69.8857 54.7916 69.8857 49.3838 66.5618 46.0606V46.0606ZM61.0852 49.6434L62.0324 50.5906C62.8576 51.4158 62.8576 52.7596 62.0324 53.5848L60.1512 55.466C59.3254 56.2918 57.9822 56.2912 57.157 55.466L56.2098 54.5188C54.2761 52.5851 51.3814 52.0182 48.832 53.0768L48.7982 53.0905C46.2989 54.1228 44.6836 56.5696 44.6836 59.3241V60.6636C44.6836 61.8116 43.6795 62.7812 42.4902 62.7812H39.8301C38.6414 62.7812 37.6367 61.8116 37.6367 60.6636V59.3241C37.6367 56.5696 36.0214 54.1228 33.5221 53.0905L33.4839 53.0749C32.6331 52.7214 31.7428 52.55 30.8626 52.55C29.1109 52.55 27.398 53.2313 26.1105 54.5182L25.1633 55.466C24.3381 56.2918 22.9949 56.2912 22.1691 55.466L20.2879 53.5848C19.4627 52.7596 19.4627 51.4158 20.2879 50.5906L21.2357 49.6434C23.1695 47.7097 23.7357 44.815 22.6746 42.26L22.6634 42.2318C21.6067 39.675 19.1024 37.957 16.4298 37.957H15.0897C13.9029 37.957 12.9727 37.0643 12.9727 35.9238V33.2637C12.9727 32.0744 13.9424 31.0703 15.0897 31.0703H16.4298C19.1837 31.0703 21.6305 29.455 22.6677 26.9438L22.6784 26.9175C23.7357 24.3725 23.1689 21.4778 21.2351 19.5441L20.2879 18.5969C19.8882 18.1971 19.6679 17.6654 19.6679 17.0998C19.6679 16.5343 19.8882 16.0025 20.2879 15.6027L22.1691 13.7215C22.5695 13.3217 23.1007 13.1015 23.6662 13.1015C24.2318 13.1015 24.7635 13.3217 25.1633 13.7215L26.1111 14.6687C28.0449 16.6024 30.9389 17.1693 33.4889 16.1101L33.5221 16.0963C36.0214 15.0641 37.6367 12.6173 37.6367 9.86337V8.52332C37.6367 7.37595 38.6408 6.40625 39.8301 6.40625H42.4902C43.6795 6.40625 44.6836 7.37595 44.6836 8.52332V9.86337C44.6836 12.6173 46.2989 15.0641 48.8014 16.0976L48.8364 16.112C51.3814 17.1693 54.2755 16.6031 56.2098 14.6687L57.157 13.7215C57.5568 13.3217 58.0885 13.1015 58.6541 13.1015C59.2197 13.1015 59.7514 13.3217 60.1512 13.7215L62.0324 15.6027C62.4322 16.0025 62.6524 16.5343 62.6524 17.0998C62.6524 17.6654 62.4322 18.1971 62.0324 18.5969L61.0846 19.5441C59.1508 21.4778 58.5847 24.3725 59.6432 26.9219L59.657 26.9557C60.713 29.5125 63.2179 31.2305 65.8905 31.2305H67.2306C68.4174 31.2305 69.3477 32.1232 69.3477 33.2637V35.9238C69.3477 37.1125 68.378 38.1172 67.2306 38.1172H65.8905C63.1366 38.1172 60.6898 39.7325 59.6588 42.2293L59.6419 42.27C58.5847 44.815 59.1508 47.7097 61.0852 49.6434V49.6434ZM82 63.2617V69.1875C82 76.2525 76.2525 82 69.1875 82C67.4183 82 65.9844 80.5661 65.9844 78.7969C65.9844 77.0276 67.4183 75.5938 69.1875 75.5938C72.7197 75.5938 75.5938 72.7197 75.5938 69.1875V63.2617C75.5938 61.4925 77.0276 60.0586 78.7969 60.0586C80.5661 60.0586 82 61.4925 82 63.2617ZM56.2148 78.7969C56.2148 80.5661 54.7809 82 53.0117 82H12.8125C5.74748 82 0 76.2525 0 69.1875V63.2617C0 61.4925 1.4339 60.0586 3.20312 60.0586C4.97235 60.0586 6.40625 61.4925 6.40625 63.2617V69.1875C6.40625 72.7197 9.2803 75.5938 12.8125 75.5938H53.0117C54.7809 75.5938 56.2148 77.0276 56.2148 78.7969ZM52.7339 34.0213C53.9845 35.2719 53.9845 37.3001 52.7339 38.5514L47.8148 43.4705C45.9993 45.2854 43.5863 46.2852 41.0194 46.2852C38.4525 46.2852 36.0395 45.2854 34.2246 43.4705L29.3055 38.5514C28.0542 37.3001 28.0542 35.2725 29.3055 34.0213C30.5561 32.7707 32.5843 32.7707 33.8349 34.0213L37.9714 38.1579L37.957 23.5461C37.9552 21.7775 39.3878 20.3417 41.157 20.3398H41.1602C42.9275 20.3398 44.3614 21.7719 44.3633 23.5398L44.3777 37.8475L48.2039 34.0213C49.4545 32.7707 51.4827 32.7707 52.7339 34.0213V34.0213Z"/>
</mask>
<path d="M66.5618 46.0606L65.6146 45.1134C65.5214 45.0202 65.4995 44.8681 65.554 44.7374L65.5784 44.6773C65.6309 44.5503 65.7773 44.5234 65.8905 44.5234H67.23C71.9302 44.5234 75.7539 40.6659 75.7539 35.9238V33.2637C75.7539 30.979 74.858 28.8444 73.2321 27.2541C71.6305 25.6869 69.4991 24.8242 67.23 24.8242H65.8899C65.8374 24.8242 65.6628 24.7141 65.5727 24.4964L65.5577 24.4607C65.4989 24.3194 65.5214 24.1673 65.6146 24.0741L66.5618 23.1269C68.1715 21.5172 69.0586 19.3764 69.0586 17.0998C69.0586 14.8232 68.1715 12.6824 66.5618 11.0727L64.6806 9.19209C63.0709 7.58177 60.9307 6.69528 58.6535 6.69528C56.3769 6.69528 54.2367 7.58177 52.627 9.19209L51.6792 10.1393C51.586 10.2325 51.4346 10.255 51.2975 10.1981L51.2431 10.1756C51.1161 10.123 51.0892 9.97661 51.0892 9.86337V8.52332C51.0898 3.82373 47.2323 0 42.4902 0H39.8301C35.088 0 31.2305 3.82373 31.2305 8.52332V9.86337C31.2305 9.97661 31.2036 10.123 31.0797 10.1737L31.0271 10.1956C30.8858 10.2544 30.7337 10.2325 30.6405 10.1393L29.6933 9.19147C28.0836 7.58177 25.9428 6.69528 23.6662 6.69528C21.3896 6.69528 19.2488 7.58177 17.6391 9.19147L15.7585 11.0727C14.1482 12.6824 13.2617 14.8232 13.2617 17.0998C13.2617 19.3764 14.1482 21.5172 15.7579 23.1269L16.7057 24.0741C16.7989 24.1673 16.8208 24.3194 16.7645 24.4557L16.7413 24.5102C16.6888 24.6372 16.543 24.6641 16.4298 24.6641H15.0897C10.3901 24.6641 6.56641 28.5216 6.56641 33.2637V35.9238C6.56641 38.2085 7.46228 40.3431 9.08824 41.9334C10.6898 43.5006 12.8213 44.3633 15.0897 44.3633H16.4298C16.4823 44.3633 16.6575 44.4734 16.747 44.6898L16.762 44.7268C16.8208 44.8681 16.7989 45.0202 16.7057 45.1134L15.7579 46.0606C12.4346 49.3838 12.4346 54.7916 15.7579 58.1148L17.6391 59.996C20.9623 63.3193 26.3701 63.3193 29.6933 59.996L30.6405 59.0482C30.7337 58.955 30.8858 58.9331 31.0221 58.9894L31.0766 59.0126C31.2036 59.0645 31.2305 59.2109 31.2305 59.3241V60.6636C31.2305 65.3638 35.088 69.1875 39.8301 69.1875H42.4902C47.2323 69.1875 51.0898 65.3638 51.0898 60.6636V59.3241C51.0898 59.2109 51.1167 59.0645 51.2437 59.0126L51.2932 58.9919C51.4346 58.9331 51.5866 58.955 51.6798 59.0482L52.627 59.996C55.9502 63.3193 61.358 63.3193 64.6812 59.996L66.5624 58.1148C69.8857 54.7916 69.8857 49.3838 66.5618 46.0606V46.0606ZM61.0852 49.6434L62.0324 50.5906C62.8576 51.4158 62.8576 52.7596 62.0324 53.5848L60.1512 55.466C59.3254 56.2918 57.9822 56.2912 57.157 55.466L56.2098 54.5188C54.2761 52.5851 51.3814 52.0182 48.832 53.0768L48.7982 53.0905C46.2989 54.1228 44.6836 56.5696 44.6836 59.3241V60.6636C44.6836 61.8116 43.6795 62.7812 42.4902 62.7812H39.8301C38.6414 62.7812 37.6367 61.8116 37.6367 60.6636V59.3241C37.6367 56.5696 36.0214 54.1228 33.5221 53.0905L33.4839 53.0749C32.6331 52.7214 31.7428 52.55 30.8626 52.55C29.1109 52.55 27.398 53.2313 26.1105 54.5182L25.1633 55.466C24.3381 56.2918 22.9949 56.2912 22.1691 55.466L20.2879 53.5848C19.4627 52.7596 19.4627 51.4158 20.2879 50.5906L21.2357 49.6434C23.1695 47.7097 23.7357 44.815 22.6746 42.26L22.6634 42.2318C21.6067 39.675 19.1024 37.957 16.4298 37.957H15.0897C13.9029 37.957 12.9727 37.0643 12.9727 35.9238V33.2637C12.9727 32.0744 13.9424 31.0703 15.0897 31.0703H16.4298C19.1837 31.0703 21.6305 29.455 22.6677 26.9438L22.6784 26.9175C23.7357 24.3725 23.1689 21.4778 21.2351 19.5441L20.2879 18.5969C19.8882 18.1971 19.6679 17.6654 19.6679 17.0998C19.6679 16.5343 19.8882 16.0025 20.2879 15.6027L22.1691 13.7215C22.5695 13.3217 23.1007 13.1015 23.6662 13.1015C24.2318 13.1015 24.7635 13.3217 25.1633 13.7215L26.1111 14.6687C28.0449 16.6024 30.9389 17.1693 33.4889 16.1101L33.5221 16.0963C36.0214 15.0641 37.6367 12.6173 37.6367 9.86337V8.52332C37.6367 7.37595 38.6408 6.40625 39.8301 6.40625H42.4902C43.6795 6.40625 44.6836 7.37595 44.6836 8.52332V9.86337C44.6836 12.6173 46.2989 15.0641 48.8014 16.0976L48.8364 16.112C51.3814 17.1693 54.2755 16.6031 56.2098 14.6687L57.157 13.7215C57.5568 13.3217 58.0885 13.1015 58.6541 13.1015C59.2197 13.1015 59.7514 13.3217 60.1512 13.7215L62.0324 15.6027C62.4322 16.0025 62.6524 16.5343 62.6524 17.0998C62.6524 17.6654 62.4322 18.1971 62.0324 18.5969L61.0846 19.5441C59.1508 21.4778 58.5847 24.3725 59.6432 26.9219L59.657 26.9557C60.713 29.5125 63.2179 31.2305 65.8905 31.2305H67.2306C68.4174 31.2305 69.3477 32.1232 69.3477 33.2637V35.9238C69.3477 37.1125 68.378 38.1172 67.2306 38.1172H65.8905C63.1366 38.1172 60.6898 39.7325 59.6588 42.2293L59.6419 42.27C58.5847 44.815 59.1508 47.7097 61.0852 49.6434V49.6434ZM82 63.2617V69.1875C82 76.2525 76.2525 82 69.1875 82C67.4183 82 65.9844 80.5661 65.9844 78.7969C65.9844 77.0276 67.4183 75.5938 69.1875 75.5938C72.7197 75.5938 75.5938 72.7197 75.5938 69.1875V63.2617C75.5938 61.4925 77.0276 60.0586 78.7969 60.0586C80.5661 60.0586 82 61.4925 82 63.2617ZM56.2148 78.7969C56.2148 80.5661 54.7809 82 53.0117 82H12.8125C5.74748 82 0 76.2525 0 69.1875V63.2617C0 61.4925 1.4339 60.0586 3.20312 60.0586C4.97235 60.0586 6.40625 61.4925 6.40625 63.2617V69.1875C6.40625 72.7197 9.2803 75.5938 12.8125 75.5938H53.0117C54.7809 75.5938 56.2148 77.0276 56.2148 78.7969ZM52.7339 34.0213C53.9845 35.2719 53.9845 37.3001 52.7339 38.5514L47.8148 43.4705C45.9993 45.2854 43.5863 46.2852 41.0194 46.2852C38.4525 46.2852 36.0395 45.2854 34.2246 43.4705L29.3055 38.5514C28.0542 37.3001 28.0542 35.2725 29.3055 34.0213C30.5561 32.7707 32.5843 32.7707 33.8349 34.0213L37.9714 38.1579L37.957 23.5461C37.9552 21.7775 39.3878 20.3417 41.157 20.3398H41.1602C42.9275 20.3398 44.3614 21.7719 44.3633 23.5398L44.3777 37.8475L48.2039 34.0213C49.4545 32.7707 51.4827 32.7707 52.7339 34.0213V34.0213Z" fill="#4295E4" stroke="#F5FAFF" stroke-width="0.6" mask="url(#path-1-inside-1_15_1852)"/>
</g>
<defs>
<clipPath id="clip0_15_1852">
<rect width="82" height="82" fill="white"/>
</clipPath>
</defs>
</svg>
